# xmcd
#
# Track frame offsets:
#	182
#	12172
#	26165
#	40797
#	54670
#	69060
#	83055
#	95982
#	109542
#	122767
#	135325
#	149832
#	162892
#	175022
#	187810
#	200895
#
# Disc length: 2839 seconds
#
# Revision: 4
# Processed by: cddbd v1.5.2PL0 Copyright (c) Steve Scherf et al.
# Submitted via: audiograbber 1.83.01
#
DISCID=d80b1510
DTITLE=Big Joe Williams - Baby Please Don't Go - The Blues Collection 36
DYEAR=1996
DGENRE=Blues
TTITLE0=Worried Man Blues
TTITLE1=Stepfather Blues
TTITLE2=Wild Cow Blues
TTITLE3=Somebody's Been Borrowing That Stuff
TTITLE4=Stack O'Dollars
TTITLE5=Providence Help The Poor People
TTITLE6=Brother James
TTITLE7=I Know You Gonna Miss Me
TTITLE8=Rootin' Ground Hog
TTITLE9=Baby Please Don't Go
TTITLE10=Highway
TTITLE11=Meet Me Around The Corner
TTITLE12=Peach Orchard Mama
TTITLE13=Crawlin' King Snake
TTITLE14=North Wind Blues
TTITLE15=Throw A Boogie Woogie
EXTD=
EXTT0=
EXTT1=
EXTT2=
EXTT3=
EXTT4=
EXTT5=
EXTT6=
EXTT7=
EXTT8=
EXTT9=
EXTT10=
EXTT11=
EXTT12=
EXTT13=
EXTT14=
EXTT15=
PLAYORDER=
